<?xml version="1.0" encoding="utf-8"?>
<svg version="1.1" id="Laag_1" xmlns="http://www.w3.org/2000/svg" xmlns:xlink="http://www.w3.org/1999/xlink" x="0px" y="0px"
	 viewBox="0 0 400 400" style="enable-background:new 0 0 400 400;" xml:space="preserve">
<style type="text/css">
	.st0{fill:#252350;}
</style>
<g>
	<path class="st0" d="M199.9,216.9c-8.8,8.9-17.6,17.7-26.4,26.5c-2.8,2.8-10.7,2.7-13.7,0.2c-4-3.3-5.3-7.1-5.3-12.4
		c0.3-22.3,0.1-44.6,0.1-66.9c0-4,5.7-9.4,9.7-9.8c5.1-0.5,9.3,0.6,12.1,5c0.9,1.4,1.8,3.2,1.8,4.8c0.1,12.8,0,25.6,0,38.4
		c0,0.4,0.1,0.8,0.4,2.2c4.5-4.6,8.5-8.8,12.5-12.9c11.7-11.7,23.4-23.4,35.1-35.2c3.4-3.4,11-2.9,14.8,0c4.9,3.7,4.5,8.5,4.3,13.5
		c0,0.9-1,2-1.8,2.7c-8.2,8.3-16.4,16.5-24.7,24.8c-0.6,0.6-1.6,1-2.8,1.7c8,7.9,15.2,15,22.4,22.1c0.6,0.6,1.1,1.2,1.7,1.7
		c5.2,3.3,6,8.4,5.1,13.7c-0.3,1.8-2.2,3.5-3.7,5c-4.7,4.8-11.6,4.7-16.4-0.1C217,233.8,208.6,225.5,199.9,216.9z"/>
	<path class="st0" d="M278.9,221.7c1.9,0,3.3,0,4.8,0c11.7,0,23.3-0.1,35,0c2.9,0,3.7-0.8,3.7-3.6c-0.1-18.1,0-36.1,0-54.2
		c0-3.8,5.8-9.5,9.6-9.3c3.4,0.2,6.7-0.9,9.8,2.3c3,3.2,4.2,6.2,4.1,10.5c-0.2,23-0.1,46-0.1,68.9c0,3.3-5.6,8.9-9,8.9
		c-24.2,0-48.5,0-72.7,0c-2.9,0-8.8-5.8-8.8-8.8c0-24.5,0-48.9,0-73.4c0-2,5.6-8.1,7.6-8.6c6-1.2,12.2,1.3,15.3,6.3
		c0.6,1,0.6,2.4,0.6,3.6c0,17.1,0,34.3,0,51.4C278.9,217.7,278.9,219.4,278.9,221.7z"/>
	<path class="st0" d="M77.9,188.1c2.8,0,5.2,0,7.5,0c10.7,0,21.5-0.1,32.2,0.1c2.9,0,3.7-0.9,3.6-3.7c-0.2-6.7,0-13.5,0-20.2
		c0-4.1,5.5-9.4,9.7-9.7c4.7-0.3,8.6,0.4,11.7,4.5c1.5,1.9,2.4,3.6,2.3,6c-0.1,23.3-0.1,46.6-0.1,70c0,5-5.5,9.7-10.4,10.4
		c-5.7,0.8-9-2.1-12.1-5.9c-0.8-0.9-1.1-2.5-1.1-3.7c-0.1-7-0.2-13.9,0-20.9c0.1-2.4-0.6-3.2-3-3.2c-12.5,0.1-24.9,0.1-37.4,0
		c-2.5,0-3.1,0.9-3,3.2c0.1,7,0.1,13.9,0,20.9c0,3.8-5.7,9.2-9.5,9.5c-4.8,0.4-8.8-0.4-12-4.5c-1.5-2-2.3-3.6-2.2-6.1
		c0.1-23.6,0.1-47.1,0.1-70.7c0-4,5.5-9.6,9.4-9.4c3.2,0.2,6.5-1,9.6,2c3.6,3.4,5,6.8,4.7,11.6C77.6,174.8,77.9,181.3,77.9,188.1z"
		/>
</g>
</svg>
