<?xml version="1.0" encoding="utf-8"?>
<svg version="1.1" width="118px" height="175px" id="Laag_1" xmlns="http://www.w3.org/2000/svg" xmlns:xlink="http://www.w3.org/1999/xlink" x="0px" y="0px"
	 viewBox="0 0 118 75" style="enable-background:new 0 0 400 400;" xml:space="preserve">
<style type="text/css">
	.st0{fill:#252350;}
</style>
<g>
    <path d="M60,-3.55271368e-15 L80,34 L39,34 L60,-3.55271368e-15 Z M84,58 L84,24 L106,24 L106,24 C110.39558,24.4687114 113.75,28.0926224 114,33 C113.75,35.3565548 112.340899,37.8839965 110,39 C114.616012,40.1547223 118,44.0071747 118,49 C118,53.599519 114.154169,57.650796 109,58 L109,58 L84,58 Z M1.0658141e-14,75 L1.0658141e-14,41 L17,41 L17,58 L34,58 L34,75 L1.0658141e-14,75 Z"></path>
</g>
</svg>
