<?xml version="1.0" encoding="utf-8"?>
<!-- Generator: Adobe Illustrator 25.4.1, SVG Export Plug-In . SVG Version: 6.00 Build 0)  -->
<svg version="1.1" id="Laag_1" xmlns="http://www.w3.org/2000/svg" xmlns:xlink="http://www.w3.org/1999/xlink" x="0px" y="0px"
	 viewBox="0 0 400 400" style="enable-background:new 0 0 400 400;" xml:space="preserve">
<path d="M156,237.6c-12.5-3.5-24.9-7-37.5-10.6c5.8-19.3,16.7-34.7,33.2-46c16.5-11.3,34.8-16,55-14.4
	c-13.8-27.5-27.5-54.8-41.3-82.3c11.6-5.8,23.1-11.6,34.8-17.4c0.2,0.4,0.5,0.8,0.7,1.1c10.3,20.6,20.6,41.2,30.9,61.7
	c11.7,23.3,23.4,46.7,35.2,70c3.6,7.1,7.4,14.1,10.1,21.6c3.3,9.1,5.4,18.5,5.3,28.3c-0.1,21.6-7.4,40.6-22,56.6
	c-13,14.3-29.2,23.1-48.3,26c-24,3.6-45.8-1.9-64.9-16.9c-14.8-11.6-24.4-26.8-29.1-45.1c-0.1-0.5-0.2-0.9-0.3-1.6
	c12.6-2.9,25.1-5.8,37.8-8.8c3.9,14.5,12.4,25.1,26.3,31c9.6,4.1,19.5,4.6,29.5,1.7c19.7-5.7,33.1-24.1,32.2-44.7
	c-1-22.3-17.8-39.1-37.9-42.1C183.8,202.5,162.6,215.5,156,237.6z"/>
</svg>
